<svg xmlns="http://www.w3.org/2000/svg" width="201" height="130" viewBox="0 0 201 130">
    <g fill="none" fill-rule="evenodd">
        <g transform="matrix(-1 0 0 1 214.044 35.637)">
            <g fill="#EAEAEA" transform="translate(12.494 49.8)">
                <rect width="6.303" height="16.346" x="25.814" y="2.121" rx="3.151"/>
                <path d="M19.041 15.127h6.303v16.346h-6.303z"/>
                <rect width="6.303" height="16.346" x="4.396" y=".252" rx="3.151" transform="rotate(38 7.547 8.425)"/>
                <path d="M13.892 15.127h6.303v16.346h-6.303z"/>
                <path d="M10.359 2.121h17.543v17.765H10.359z"/>
                <rect width="3.788" height="6.546" x="17.373" y="3.651" rx="1.894"/>
                <rect width="3.788" height="3.868" x="17.373" y="12.938" rx="1.894"/>
            </g>
            <path fill="#EAEAEA" d="M49.47 24.97l.286.166-.326.187c-.457 4.016-1.456 10.79-1.456 10.79s-.514-4.852-1.974-8.83L36.78 32.55l-4.853-2.807-5.426 3.129-8.56-5.352c-1.394 3.932-1.888 8.593-1.888 8.593s-.98-6.646-1.443-10.675l-.513-.321.449-.258a30.932 30.932 0 0 1-.168-1.945c-.075-2.085 1.592-9.21 11.725-11.23-1.31-.68-2.574-2.077-2.31-5.08C24.3.89 30.52.218 30.52.218l1.494.84.083-.84s11.802 2.651 5.973 11.498c10.003 2.06 11.654 9.125 11.58 11.2-.017.446-.083 1.17-.18 2.055z"/>
            <path fill="#EAEAEA" d="M13.924 45.698l17.73 10.252.107-14.855-4.92-2.844.004-5.127-12.909-8.072z"/>
            <path fill="#EAEAEA" d="M36.729 32.434l-.004 5.809-4.966 2.863-.108 14.968 17.983-10.368.013-20.654z"/>
            <rect width="11.13" height="6.035" x="30.33" y="80.661" fill="#EAEAEA" rx="3.018"/>
            <rect width="11.13" height="6.035" x="22.124" y="80.661" fill="#EAEAEA" rx="3.018"/>
        </g>
        <g transform="matrix(-1 0 0 1 161.577 35.637)">
            <g fill="#EAEAEA" transform="translate(12.494 49.8)">
                <rect width="6.303" height="16.346" x="25.814" y="2.121" rx="3.151"/>
                <path d="M19.041 15.127h6.303v16.346h-6.303z"/>
                <rect width="6.303" height="16.346" x="4.396" y=".252" rx="3.151" transform="rotate(38 7.547 8.425)"/>
                <path d="M13.892 15.127h6.303v16.346h-6.303z"/>
                <path d="M10.359 2.121h17.543v17.765H10.359z"/>
                <rect width="3.788" height="6.546" x="17.373" y="3.651" rx="1.894"/>
                <rect width="3.788" height="3.868" x="17.373" y="12.938" rx="1.894"/>
            </g>
            <path fill="#EAEAEA" d="M49.47 24.97l.286.166-.326.187c-.457 4.016-1.456 10.79-1.456 10.79s-.514-4.852-1.974-8.83L36.78 32.55l-4.853-2.807-5.426 3.129-8.56-5.352c-1.394 3.932-1.888 8.593-1.888 8.593s-.98-6.646-1.443-10.675l-.513-.321.449-.258a30.932 30.932 0 0 1-.168-1.945c-.075-2.085 1.592-9.21 11.725-11.23-1.31-.68-2.574-2.077-2.31-5.08C24.3.89 30.52.218 30.52.218l1.494.84.083-.84s11.802 2.651 5.973 11.498c10.003 2.06 11.654 9.125 11.58 11.2-.017.446-.083 1.17-.18 2.055z"/>
            <path fill="#EAEAEA" d="M13.924 45.698l17.73 10.252.107-14.855-4.92-2.844.004-5.127-12.909-8.072z"/>
            <path fill="#EAEAEA" d="M36.729 32.434l-.004 5.809-4.966 2.863-.108 14.968 17.983-10.368.013-20.654z"/>
            <rect width="11.13" height="6.035" x="30.33" y="80.661" fill="#EAEAEA" rx="3.018"/>
            <rect width="11.13" height="6.035" x="22.124" y="80.661" fill="#EAEAEA" rx="3.018"/>
        </g>
        <g transform="matrix(-1 0 0 1 108.955 35.637)">
            <g fill="#EAEAEA" transform="translate(12.494 49.8)">
                <rect width="6.303" height="16.346" x="25.814" y="2.121" rx="3.151"/>
                <path d="M19.041 15.127h6.303v16.346h-6.303z"/>
                <rect width="6.303" height="16.346" x="4.396" y=".252" rx="3.151" transform="rotate(38 7.547 8.425)"/>
                <path d="M13.892 15.127h6.303v16.346h-6.303z"/>
                <path d="M10.359 2.121h17.543v17.765H10.359z"/>
                <rect width="3.788" height="6.546" x="17.373" y="3.651" rx="1.894"/>
                <rect width="3.788" height="3.868" x="17.373" y="12.938" rx="1.894"/>
            </g>
            <path fill="#EAEAEA" d="M49.47 24.97l.286.166-.326.187c-.457 4.016-1.456 10.79-1.456 10.79s-.514-4.852-1.974-8.83L36.78 32.55l-4.853-2.807-5.426 3.129-8.56-5.352c-1.394 3.932-1.888 8.593-1.888 8.593s-.98-6.646-1.443-10.675l-.513-.321.449-.258a30.932 30.932 0 0 1-.168-1.945c-.075-2.085 1.592-9.21 11.725-11.23-1.31-.68-2.574-2.077-2.31-5.08C24.3.89 30.52.218 30.52.218l1.494.84.083-.84s11.802 2.651 5.973 11.498c10.003 2.06 11.654 9.125 11.58 11.2-.017.446-.083 1.17-.18 2.055z"/>
            <path fill="#EAEAEA" d="M13.924 45.698l17.73 10.252.107-14.855-4.92-2.844.004-5.127-12.909-8.072z"/>
            <path fill="#EAEAEA" d="M36.729 32.434l-.004 5.809-4.966 2.863-.108 14.968 17.983-10.368.013-20.654z"/>
            <rect width="11.13" height="6.035" x="30.33" y="80.661" fill="#EAEAEA" rx="3.018"/>
            <rect width="11.13" height="6.035" x="22.124" y="80.661" fill="#EAEAEA" rx="3.018"/>
        </g>
        <g fill="#EAEAEA" transform="matrix(-1 0 0 1 43.493 44.882)">
            <rect width="5.486" height="14.228" x="22.952" y="42.792" rx="2.743"/>
            <path d="M17.056 57.884h5.486v14.228h-5.486z"/>
            <rect width="5.486" height="14.228" x="6.05" y="42.441" rx="2.743"/>
            <path d="M12.454 57.884h5.486v14.228h-5.486z"/>
            <path d="M10.715 42.441h13.498v17.328H10.715zM10.715 62.713h13.498V59.77H10.715z"/>
            <rect width="2.944" height="2.944" x="15.584" y="51.266" rx="1.472"/>
            <rect width="2.944" height="2.944" x="15.662" y="55.785" rx="1.472"/>
            <path d="M33.371 20.32l.85.49-12.341 7.053-4.616-2.67-5.161 2.976L.305 20.793l.823-.474H.517c0-9.249 7.498-16.746 16.746-16.746 9.249 0 16.746 7.497 16.746 16.746h-.638zM.14 40.368l16.864 9.75.101-14.128-4.679-2.706.003-4.876L.151 20.73z"/>
            <path d="M21.83 27.752l-.004 5.524L17.103 36 17 50.236l17.103-9.86.013-19.645z"/>
            <circle cx="23.593" cy="25.093" r="6.089"/>
            <circle cx="11.287" cy="25.093" r="6.089"/>
            <path d="M24.9 21.71l-4.051 3.048M13.246 22.472L9.194 25.52M25.403 23.234l-4.051 3.047M13.748 23.996l-4.051 3.047"/>
            <rect width="9.688" height="5.253" x="16.007" y="71.58" rx="2.627"/>
            <rect width="9.688" height="5.253" x="8.865" y="71.58" rx="2.627"/>
            <path fill-rule="nonzero" d="M22.381 15.43L.711 18.09C-.374 9.253 5.91 1.208 14.75.123c8.438-1.036 16.153 4.646 17.779 12.854H42.95v2.456H22.38v-.002z"/>
            <path d="M12.898 9.917l2.954 1.708.018-2.475-.82-.474V7.82L12.9 6.477zM16.38 3.943l-2.972 1.713 2.067 1.293.904-.522.808.468 2.162-1.236zM17.657 7.758v.968l-.828.477-.018 2.493 2.997-1.727.002-3.441z"/>
        </g>
        <g stroke="#4A4A4A" stroke-width="1.226" transform="translate(70.103 .644)">
            <g transform="translate(.016 .185)">
                <rect width="10.641" height="27.599" x="52.24" y="62.324" fill="#F2F2F2" rx="5.321" transform="rotate(-90 57.56 76.124)"/>
                <path fill="#F2F2F2" d="M34.61 91.246h10.641v27.599H34.61z"/>
                <rect width="10.641" height="27.599" x="13.261" y="69.286" fill="#F2F2F2" rx="5.321"/>
                <path fill="#F2F2F2" d="M25.684 91.246h10.641v27.599H25.684z"/>
                <path fill="#C9C9C9" d="M19.952 69.286h29.621v42.688H19.952z"/>
                <rect width="15.968" height="27.599" x="26.626" y="59.404" fill="#F2F2F2" rx="7.984"/>
                <path fill="#ACACAC" d="M65.473 29.8l.188.108-.288.165c-1.2 3.095-3.985 4.365-3.985 4.365s-2.34.696-6.149 1.426l-11.327 6.473-8.135-4.704-9.096 5.244-20.79-12.999 2.32-1.338c-2.99-2.393-5.666-5.375-7.87-9.07 0 0 4.388 2.065 9.033 1.549 0 0-1.08-.259-3.766-5.678l4.54 2.323S2.359 11.47 5.609.374c0 0 7.12 7.982 14.604 9.023l-4.339-5.669s5.516-.774 14.992 2.323l-1.62-4.13s21.964 1.55 32.143 14.71c4.702 6.08 5.06 10.341 4.085 13.168z"/>
                <path fill="#EAEAEA" d="M5.686 63.147l28.576 16.522.172-23.941-7.928-4.585.005-8.263L5.707 29.872z"/>
                <path fill="#CCC" d="M43.694 42.648v8.505l-9.074 4.489-.186 24.027L65.64 63.026l.022-33.154z"/>
            </g>
            <rect width="18.793" height="10.19" x="32.59" y="117.997" fill="#D7D7D7" rx="5.095"/>
            <rect width="18.793" height="10.19" x="18.737" y="117.997" fill="#D7D7D7" rx="5.095"/>
        </g>
        <g stroke="#4A4A4A" transform="translate(130.305 33.609)">
            <g stroke-width="1.226">
                <g transform="translate(7.778 50.49)">
                    <rect width="7.116" height="18.456" x="21.924" y=".737" fill="#F2F2F2" rx="3.558"/>
                    <path fill="#DCDCDC" d="M14.276 20.314h7.116V38.77h-7.116z"/>
                    <rect width="7.116" height="18.456" y=".283" fill="#F2F2F2" rx="3.558"/>
                    <path fill="#DCDCDC" d="M8.308 20.314h7.116V38.77H8.308z"/>
                    <path fill="#ACACAC" d="M6.051.283H23.56v22.476H6.051z"/>
                    <path fill="#F2F2F2" d="M6.051 26.578H23.56v-3.82H6.051z"/>
                    <rect width="3.819" height="3.819" x="12.366" y="11.729" fill="#FFF" rx="1.91"/>
                    <rect width="3.819" height="3.819" x="12.468" y="17.592" fill="#FFF" rx="1.91"/>
                </g>
                <path fill="#C8C8C8" d="M43.217 22.078l1.103.637-16.008 9.148-5.988-3.462-6.695 3.86L.327 22.693l1.067-.615H.6C.601 10.081 10.327.356 22.323.356c11.997 0 21.722 9.725 21.722 21.722h-.828z"/>
                <path fill="#EAEAEA" d="M.111 48.084l21.876 12.648.131-18.327-6.069-3.51.004-6.325L.127 22.612z"/>
                <path fill="#CCC" d="M28.247 31.72l-.005 7.165-6.127 3.533-.132 18.466 22.185-12.79.016-25.482z"/>
                <g fill="#FFF" transform="translate(6.397 20.298)">
                    <circle cx="24.137" cy="7.972" r="7.899"/>
                    <circle cx="8.175" cy="7.972" r="7.899"/>
                </g>
            </g>
            <path stroke-linecap="round" stroke-width=".968" d="M32.23 23.883l-5.256 3.952M17.112 24.871l-5.255 3.953M32.882 25.86l-5.256 3.952M17.764 26.847L12.51 30.8"/>
            <rect width="12.567" height="6.814" x="20.693" y="88.57" fill="#FFF" stroke-width="1.226" rx="3.407"/>
            <rect width="12.567" height="6.814" x="11.429" y="88.57" fill="#FFF" stroke-width="1.226" rx="3.407"/>
        </g>
        <g transform="translate(18.82 20.584)">
            <g stroke="#4A4A4A" stroke-width="1.226" transform="translate(15.415 61.44)">
                <rect width="7.776" height="20.167" x="31.848" y="2.616" fill="#F2F2F2" rx="3.888"/>
                <path fill="#F2F2F2" d="M23.491 18.662h7.776v20.167h-7.776z"/>
                <rect width="7.776" height="20.167" x="5.423" y=".311" fill="#F2F2F2" rx="3.888" transform="rotate(38 9.31 10.395)"/>
                <path fill="#F2F2F2" d="M17.139 18.662h7.776v20.167h-7.776z"/>
                <path fill="#E1E1E1" d="M12.781 2.616h21.644v21.917H12.781z"/>
                <rect width="4.673" height="8.077" x="21.434" y="4.505" fill="#F2F2F2" rx="2.336"/>
                <rect width="4.673" height="4.772" x="21.434" y="15.962" fill="#F2F2F2" rx="2.336"/>
            </g>
            <path fill="#BFBFBF" stroke="#4A4A4A" stroke-width="1.226" d="M61.032 30.807l.355.204-.403.23c-.564 4.956-1.796 13.314-1.796 13.314s-.635-5.987-2.436-10.895l-11.373 6.499-5.988-3.462-6.695 3.86-10.56-6.603c-1.72 4.85-2.33 10.601-2.33 10.601s-1.209-8.199-1.78-13.17l-.632-.396.553-.319c-.112-1.03-.188-1.872-.207-2.399-.093-2.572 1.964-11.362 14.466-13.855-1.616-.838-3.177-2.563-2.85-6.266.622-7.053 8.298-7.883 8.298-7.883l1.843 1.038L39.6.267s14.561 3.272 7.37 14.186c12.34 2.542 14.378 11.259 14.285 13.818-.02.55-.101 1.443-.222 2.536z"/>
            <path fill="#EAEAEA" stroke="#4A4A4A" stroke-width="1.226" d="M17.178 56.38l21.875 12.648.132-18.327-6.069-3.51.004-6.325-15.926-9.958z"/>
            <path fill="#CCC" stroke="#4A4A4A" stroke-width="1.226" d="M45.313 40.015l-.004 7.166-6.127 3.533-.133 18.466 22.186-12.79.016-25.482z"/>
            <rect width="13.732" height="7.446" x="37.419" y="99.515" fill="#B3B3B3" stroke="#4A4A4A" stroke-width="1.226" rx="3.723"/>
            <rect width="13.732" height="7.446" x="27.296" y="99.515" fill="#B3B3B3" stroke="#4A4A4A" stroke-width="1.226" rx="3.723"/>
        </g>
        <path fill="#848484" fill-rule="nonzero" stroke="#4A4A4A" stroke-width="1.195" d="M159.267 49.345l-28.11 3.451c-1.407-11.464 6.745-21.9 18.21-23.307 10.946-1.344 20.953 6.026 23.062 16.673h13.519v3.186h-26.681v-.003z"/>
        <g fill="#F1F1F1" stroke="#4A4A4A" stroke-width=".597">
            <path d="M146.965 42.194l3.832 2.215.023-3.21-1.063-.615v-1.108l-2.79-1.744zM151.483 34.445l-3.856 2.223 2.68 1.676 1.174-.676 1.048.606 2.805-1.602zM153.14 39.393l-.002 1.256-1.073.618-.023 3.235 3.886-2.24.003-4.464z"/>
        </g>
    </g>
</svg>
