<svg xmlns="http://www.w3.org/2000/svg" width="180" height="209" viewBox="0 0 180 209">
    <g fill="none" fill-rule="evenodd">
        <path fill="#BDBDBD" d="M87.484 208.65l-60.72-35.007 42.218-26.396 18.471 10.649 16.52-9.552 44.164 25.238z" opacity=".373"/>
        <path fill="#E72200" d="M88.202 186.133l78.078-45.014-54.287-33.942-23.751 13.693-21.241-12.282-56.79 32.452z"/>
        <path fill="#B0AEAE" d="M124.557 130.275H13.953v1.394a6.739 6.739 0 0 0 6.739 6.739h97.127a6.739 6.739 0 0 0 6.738-6.739v-1.394z"/>
        <path stroke="#3F4749" stroke-linecap="round" stroke-linejoin="round" stroke-width="1.92" d="M124.557 130.275H13.953v1.394a6.739 6.739 0 0 0 6.739 6.739h97.127a6.739 6.739 0 0 0 6.738-6.739v-1.394z"/>
        <path fill="#DCDADA" d="M57.56 134.341h23.391v-4.066h-23.39z"/>
        <path stroke="#3F4749" stroke-linecap="round" stroke-linejoin="round" stroke-width="1.92" d="M57.56 134.341h23.391v-4.066h-23.39z"/>
        <path fill="#DCDADA" d="M109.706 78.226h-80.9a4.744 4.744 0 0 0-4.745 4.745v47.304h90.388V82.971a4.744 4.744 0 0 0-4.743-4.745"/>
        <path stroke="#3F4749" stroke-linecap="round" stroke-linejoin="round" stroke-width="1.92" d="M109.706 78.226h-80.9a4.744 4.744 0 0 0-4.745 4.745v47.304h90.388V82.971a4.744 4.744 0 0 0-4.743-4.745z"/>
        <path fill="#DCDADA" d="M28.708 125.628h81.094V82.874H28.708z"/>
        <path stroke="#3F4749" stroke-linecap="round" stroke-linejoin="round" stroke-width="1.152" d="M28.708 125.628h81.094V82.874H28.708z"/>
        <path fill="#FFF" d="M28.708 125.628h81.094V82.874H28.708z"/>
        <path stroke="#3F4749" stroke-linecap="round" stroke-linejoin="round" stroke-width="1.92" d="M28.708 125.628h81.094V82.874H28.708z"/>
        <path fill="#DCDADA" d="M68.442 80.55a.813.813 0 1 1 1.627 0 .813.813 0 0 1-1.627 0"/>
        <path stroke="#3F4749" stroke-linecap="round" stroke-linejoin="round" stroke-width="1.152" d="M68.442 80.55a.813.813 0 1 1 1.627 0 .813.813 0 0 1-1.627 0z"/>
        <g fill="#3F4749" fill-rule="nonzero">
            <path d="M136.244 132.117c-.688 0-1.246-.642-1.246-1.433V109.19c0-.792.558-1.433 1.246-1.433h18.692c.689 0 1.247.641 1.247 1.433v21.494c0 .791-.558 1.433-1.247 1.433h-18.692zm1.246-2.866h16.2v-18.628h-16.2v18.628z"/>
            <path d="M135.097 110.15l1.983-2.28 18.693 21.496-1.983 2.28z"/>
            <path d="M153.79 107.87l1.983 2.28-18.693 21.496-1.983-2.28z"/>
            <path d="M136.244 110.623c-.688 0-1.246-.642-1.246-1.433V87.696c0-.792.558-1.433 1.246-1.433h18.692c.689 0 1.247.641 1.247 1.433v21.494c0 .791-.558 1.433-1.247 1.433h-18.692zm1.246-2.866h16.2V89.129h-16.2v18.628z"/>
            <path d="M135.097 88.656l1.983-2.28 18.693 21.496-1.983 2.28z"/>
            <path d="M153.79 86.377l1.983 2.28-18.693 21.495-1.983-2.28z"/>
            <path d="M136.244 89.129c-.688 0-1.246-.642-1.246-1.433V66.202c0-.792.558-1.433 1.246-1.433h18.692c.689 0 1.247.641 1.247 1.433v21.494c0 .791-.558 1.433-1.247 1.433h-18.692zm1.246-2.866h16.2V67.635h-16.2v18.628z"/>
            <path d="M135.097 67.162l1.983-2.28 18.693 21.496-1.983 2.28z"/>
            <path d="M153.79 64.883l1.983 2.28-18.693 21.495-1.983-2.28z"/>
            <path d="M136.244 67.635c-.688 0-1.246-.642-1.246-1.433V44.708c0-.792.558-1.433 1.246-1.433h18.692c.689 0 1.247.641 1.247 1.433v21.494c0 .791-.558 1.433-1.247 1.433h-18.692zm1.246-2.866h16.2V46.14h-16.2V64.77z"/>
            <path d="M135.097 45.668l1.983-2.28 18.693 21.496-1.983 2.28z"/>
            <path d="M153.79 43.389l1.983 2.28-18.693 21.495-1.983-2.28z"/>
            <path d="M136.244 46.14c-.688 0-1.246-.641-1.246-1.432V23.213c0-.791.558-1.433 1.246-1.433h18.692c.689 0 1.247.642 1.247 1.433v21.495c0 .79-.558 1.432-1.247 1.432h-18.692zm1.246-2.865h16.2V24.646h-16.2v18.629z"/>
            <path d="M135.097 24.174l1.983-2.28 18.693 21.496-1.983 2.28z"/>
            <path d="M153.79 21.894l1.983 2.28L137.08 45.67l-1.983-2.28z"/>
            <path d="M136.244 24.646c-.688 0-1.246-.641-1.246-1.433V1.72c0-.791.558-1.433 1.246-1.433h18.692c.689 0 1.247.642 1.247 1.433v21.494c0 .792-.558 1.433-1.247 1.433h-18.692zm1.246-2.866h16.2V3.152h-16.2V21.78z"/>
            <path d="M135.097 2.68L137.08.4l18.693 21.496-1.983 2.28z"/>
            <path d="M153.79.4l1.983 2.28-18.693 21.496-1.983-2.28z"/>
            <path d="M117.552 46.14c-.688 0-1.246-.641-1.246-1.432V23.213c0-.791.558-1.433 1.246-1.433h18.692c.688 0 1.246.642 1.246 1.433v21.495c0 .79-.558 1.432-1.246 1.432h-18.692zm1.246-2.865h16.2V24.646h-16.2v18.629z"/>
            <path d="M137.08 43.39l-1.982 2.28-18.693-21.496 1.983-2.28z"/>
            <path d="M135.098 21.894l1.982 2.28-18.692 21.496-1.983-2.28z"/>
            <path d="M98.86 46.14c-.688 0-1.246-.641-1.246-1.432V23.213c0-.791.558-1.433 1.246-1.433h18.692c.688 0 1.246.642 1.246 1.433v21.495c0 .79-.558 1.432-1.246 1.432H98.86zm1.246-2.865h16.2V24.646h-16.2v18.629z"/>
            <path d="M97.713 24.174l1.982-2.28 18.693 21.496-1.982 2.28z"/>
            <path d="M116.406 21.894l1.982 2.28L99.695 45.67l-1.982-2.28z"/>
            <path d="M80.168 46.14c-.689 0-1.247-.641-1.247-1.432V23.213c0-.791.558-1.433 1.247-1.433H98.86c.688 0 1.246.642 1.246 1.433v21.495c0 .79-.558 1.432-1.246 1.432H80.168zm1.246-2.865h16.2V24.646h-16.2v18.629z"/>
            <path d="M79.02 24.174l1.983-2.28L99.696 43.39l-1.983 2.28z"/>
            <path d="M97.713 21.894l1.983 2.28L81.003 45.67l-1.982-2.28zM154.936 46.14c-.688 0-1.246-.641-1.246-1.432V23.213c0-.791.558-1.433 1.246-1.433h23.054c.688 0 1.246.642 1.246 1.433v21.495c0 .79-.558 1.432-1.246 1.432h-23.054zm1.247-2.865h20.56V24.646h-20.56v18.629z"/>
            <path d="M135.621 43.275v2.865H55.868v-2.865z"/>
            <path d="M62.098 46.14c-.688 0-1.246-.641-1.246-1.432V33.78c0-.535.26-1.026.674-1.272l18.07-10.747c.829-.494 1.818.198 1.818 1.272v21.674c0 .79-.558 1.432-1.246 1.432h-18.07zm1.247-2.865H78.92V25.389l-15.576 9.264v8.622zM96.99 52.589v-2.866h38.631v2.866z"/>
            <path d="M72.068 40.409v-2.866h2.492v2.866zM121.29 132.117v-2.866h47.977v2.866z"/>
        </g>
        <g>
            <path fill="#EBEBEB" d="M83.853 120.324H56.075a7.85 7.85 0 0 1-7.85-7.85V63.56a7.85 7.85 0 0 1 7.85-7.85h27.778a7.85 7.85 0 0 1 7.85 7.85v48.914a7.85 7.85 0 0 1-7.85 7.85"/>
            <path stroke="#3F4749" stroke-linecap="round" stroke-linejoin="round" stroke-width="1.344" d="M83.853 120.324H56.075a7.85 7.85 0 0 1-7.85-7.85V63.56a7.85 7.85 0 0 1 7.85-7.85h27.778a7.85 7.85 0 0 1 7.85 7.85v48.914a7.85 7.85 0 0 1-7.85 7.85z"/>
            <path fill="#535353" stroke="#3F4749" stroke-linecap="round" stroke-linejoin="round" stroke-width="1.344" d="M51.244 109.153h37.44V66.88h-37.44z"/>
            <path fill="#EBEBEB" d="M67.167 114.83a2.797 2.797 0 1 1 5.595 0 2.797 2.797 0 0 1-5.595 0"/>
            <path stroke="#3F4749" stroke-linecap="round" stroke-linejoin="round" stroke-width="1.344" d="M67.167 114.83a2.797 2.797 0 1 1 5.595 0 2.797 2.797 0 0 1-5.595 0z"/>
            <path fill="#EBEBEB" d="M78.437 61.697a1.082 1.082 0 1 1 2.165 0 1.082 1.082 0 0 1-2.165 0"/>
            <path stroke="#3F4749" stroke-linecap="round" stroke-linejoin="round" stroke-width="1.344" d="M78.437 61.697a1.082 1.082 0 1 1 2.165 0 1.082 1.082 0 0 1-2.165 0z"/>
            <path fill="#EBEBEB" d="M64.414 63.49h11.1v-3.585h-11.1z"/>
            <path stroke="#3F4749" stroke-linecap="round" stroke-linejoin="round" stroke-width="1.344" d="M64.414 63.49h11.1v-3.585h-11.1z"/>
        </g>
        <path fill="#D8D8D8" d="M53.741 76.796h30.828v-5.857H53.74zM53.741 84.083h30.828v-5.857H53.74zM53.741 91.257h30.828V85.4H53.74z"/>
        <g>
            <path stroke="#3F4749" stroke-dasharray="6.4,4.977777777777778" stroke-width="1.422" d="M49.632 44.17H1.589v75.775h5.866"/>
            <path fill="#3F4749" d="M54.153 41.344h-6.224v5.652h6.224zM11.763 117.119H5.539v5.652h6.224z"/>
        </g>
    </g>
</svg>
