<svg xmlns="http://www.w3.org/2000/svg" width="1024" height="166" viewBox="0 0 1024 166">
    <g fill="#F2F2F2" fill-rule="evenodd">
        <path d="M-14.14 104.681L1.265 85.92l10.487 25.954-16.71 18.208zM11.752 111.874L1.266 85.92l24.052 2.82 11.04 24.65z"/>
        <path d="M19.277 130.41l-24.243-.435 16.71-18.208 24.607 1.514v.001zM53.37 60.72l35.886-14.946-4.685 44.581-37.315 13.182zM84.571 90.355l4.686-44.581 31.888 22.069-2.92 43.154z"/>
        <path d="M81.275 122.222l-33.95-18.843 37.316-13.181 33.653 20.64v.002zM221.899 115.747l-36.414 30.136-10.4-53.503 38.702-28.592zM175.084 92.38l10.4 53.503-44.922-14.325-11.946-51.216z"/>
        <path d="M167.588 54.156l46.174 9.84L175.06 92.59 128.59 80.552v-.002zM329.891 109.054l-9.705 11.82-6.606-16.351 10.527-11.47z"/>
        <path d="M313.58 104.523l6.606 16.35-15.152-1.776-6.956-15.529z"/>
        <path d="M308.84 92.845l15.272.275-10.527 11.47-15.502-.954zM130.827 152.526l-9.705 11.82-6.606-16.351 10.526-11.47z"/>
        <path d="M114.515 147.995l6.607 16.35-15.153-1.776-6.955-15.529z"/>
        <path d="M109.775 136.317l15.273.275-10.528 11.47-15.501-.954zM282.308 141.343L259.7 150.76l2.952-28.086 23.507-8.304zM262.651 122.674l-2.952 28.085-20.088-13.903 1.84-27.186z"/>
        <path d="M264.728 102.598l21.388 11.87-23.509 8.305-21.2-13.003v-.001zM364.357 104.681l15.405-18.761 10.486 25.954-16.71 18.208z"/>
        <path d="M390.248 111.874L379.762 85.92l24.052 2.82 11.041 24.65z"/>
        <path d="M397.774 130.41l-24.244-.435 16.71-18.208 24.607 1.514v.001z"/>
        <g>
            <path d="M390.662 48.662l-21.027-25.608-14.313 35.426 22.808 24.852z"/>
            <path d="M355.322 58.48l14.313-35.426-32.83 3.848-15.07 33.646z"/>
            <path d="M345.05 83.781l33.091-.595-22.809-24.853-33.586 2.068z"/>
        </g>
        <g>
            <path d="M438.43 41.03l35.886-14.946-4.685 44.58-37.315 13.182z"/>
            <path d="M469.631 70.664l4.686-44.58 31.888 22.068-2.92 43.155z"/>
            <path d="M466.335 102.532l-33.95-18.843L469.7 70.507l33.653 20.64v.002z"/>
        </g>
        <g>
            <path d="M240.295 25.557l35.887-14.946-4.686 44.581-37.315 13.182z"/>
            <path d="M271.497 55.192l4.685-44.581L308.07 32.68l-2.92 43.154z"/>
            <path d="M268.2 87.06l-33.95-18.844 37.317-13.182 33.653 20.641v.002z"/>
        </g>
        <g>
            <path d="M688.543 18.506L652.656 3.561l4.686 44.58 37.315 13.183z"/>
            <path d="M657.341 48.141l-4.685-44.58-31.888 22.068 2.92 43.155z"/>
            <path d="M660.637 80.009l33.95-18.843-37.316-13.182-33.653 20.64v.002z"/>
        </g>
        <g>
            <path d="M617.898 99.703l-36.414 30.135-10.4-53.502 38.702-28.592zM571.083 76.337l10.4 53.502-44.922-14.325-11.945-51.216z"/>
            <path d="M563.587 38.112l46.175 9.84-38.704 28.593-46.467-12.037v-.002z"/>
        </g>
        <g>
            <path d="M725.89 93.01l-9.705 11.82-6.606-16.352 10.527-11.47z"/>
            <path d="M709.58 88.479l6.605 16.35-15.152-1.776-6.956-15.53z"/>
            <path d="M704.838 76.8l15.273.276-10.527 11.47-15.502-.954z"/>
        </g>
        <g>
            <path d="M678.307 125.3l-22.608 9.415 2.952-28.086 23.508-8.304zM658.65 106.63l-2.951 28.085-20.089-13.903 1.84-27.187z"/>
            <path d="M660.727 86.554l21.388 11.87-23.509 8.305-21.2-13.004z"/>
        </g>
        <g>
            <path d="M727.174 84.037l15.405 18.761 10.486-25.954-16.71-18.208zM753.065 76.844l-10.486 25.954 24.052-2.82 11.041-24.65z"/>
            <path d="M760.59 58.307l-24.243.436 16.71 18.208 24.607-1.514v-.001z"/>
        </g>
        <g>
            <path d="M794.683 135.291l35.887 14.946-4.686-44.582-37.315-13.181z"/>
            <path d="M825.885 105.656l4.685 44.581 31.888-22.069-2.92-43.154z"/>
            <path d="M822.589 73.789l-33.95 18.843 37.316 13.181 33.653-20.64v-.002z"/>
        </g>
        <g>
            <path d="M704.978 157.54l18.683 7.781-2.44-23.209-19.425-6.862zM721.222 142.113l2.439 23.208 16.6-11.489-1.52-22.466z"/>
            <path d="M719.506 125.523l-17.674 9.81 19.426 6.862 17.52-10.746z"/>
        </g>
        <g>
            <path d="M802.917 61.957l35.887 14.945-4.686-44.581-37.315-13.182z"/>
            <path d="M834.119 32.321l4.685 44.582 31.888-22.07-2.92-43.154z"/>
            <path d="M830.823.454l-33.95 18.843 37.316 13.182 33.653-20.64v-.002z"/>
        </g>
        <g>
            <path d="M978.527 80.263l-36.414-30.135-10.4 53.503 38.702 28.592zM931.713 103.63l10.4-53.502-44.923 14.325-11.945 51.215z"/>
            <path d="M924.217 141.855l46.174-9.84-38.704-28.593-46.467 12.037v.001z"/>
        </g>
        <g>
            <path d="M1038.936 54.667l-22.608-9.415 2.952 28.085 23.508 8.305z"/>
            <path d="M1019.28 73.337l-2.952-28.085-20.089 13.903 1.84 27.186z"/>
            <path d="M1021.356 93.413l21.388-11.871-23.508-8.304-21.201 13.003v.001z"/>
        </g>
    </g>
</svg>
