<svg xmlns="http://www.w3.org/2000/svg" width="496" height="78" viewBox="0 0 496 78">
    <g fill="#009FE9" fill-rule="evenodd">
        <path d="M.259 45.137l7.144 8.7 4.864-12.036-7.75-8.445z"/>
        <path d="M12.267 41.8L7.403 53.839l11.155-1.308 5.12-11.432z"/>
        <path d="M15.757 33.204l-11.244.202 7.75 8.445 11.412-.703zM36.492 49.113l16.643 6.932-2.173-20.676-17.306-6.114zM50.963 35.369l2.173 20.676L67.925 45.81 66.57 25.795z"/>
        <path d="M49.434 20.59l-15.746 8.738 17.307 6.114 15.608-9.573zM114.652 23.592L97.764 9.616 92.941 34.43l17.95 13.26zM92.94 34.43l4.824-24.814-20.834 6.643-5.54 23.753z"/>
        <path d="M89.464 52.157l21.415-4.564-17.95-13.26-21.55 5.582v.001zM164.737 26.697l-4.5-5.482-3.064 7.583 4.882 5.32zM157.172 28.798l3.064-7.583-7.027.824-3.226 7.202z"/>
        <path d="M154.974 34.214l7.083-.127-4.882-5.32-7.19.442zM72.415 6.535l-4.501-5.482-3.064 7.584 4.882 5.32zM64.85 8.636l3.064-7.583-7.027.824L57.66 9.08z"/>
        <path d="M62.651 14.052l7.084-.127-4.883-5.32-7.19.443zM142.669 11.721l-10.485-4.366 1.369 13.025 10.902 3.851zM133.553 20.38l-1.37-13.026-9.316 6.448.853 12.61z"/>
        <path d="M134.516 29.69l9.92-5.505-10.904-3.851-9.832 6.03v.001zM180.722 28.724l7.144 8.702 4.864-12.038-7.75-8.444z"/>
        <path d="M192.73 25.389l-4.864 12.037 11.155-1.308 5.121-11.432z"/>
        <path d="M196.22 16.792l-11.244.202 7.75 8.444 11.412-.702z"/>
        <g>
            <path d="M192.922 54.705l-9.752 11.877-6.638-16.43 10.577-11.526z"/>
            <path d="M176.531 50.152l6.639 16.43-15.226-1.785-6.99-15.604z"/>
            <path d="M171.768 38.418l15.347.276-10.579 11.526-15.576-.959z"/>
        </g>
        <g>
            <path d="M215.075 58.245l16.644 6.932-2.173-20.676-17.306-6.114zM229.546 44.5l2.173 20.677 14.79-10.235-1.355-20.015z"/>
            <path d="M228.017 29.722l-15.745 8.739 17.306 6.113L245.186 35z"/>
        </g>
        <g>
            <path d="M123.184 65.421l16.644 6.932-2.173-20.676-17.306-6.114zM137.655 51.677l2.173 20.676 14.789-10.235-1.354-20.015z"/>
            <path d="M136.126 36.897l-15.745 8.74 17.306 6.113 15.608-9.573z"/>
        </g>
        <g>
            <path d="M331.073 68.69l-16.643 6.932 2.173-20.676 17.306-6.113zM316.602 54.947l-2.173 20.676-14.789-10.236 1.355-20.014z"/>
            <path d="M318.131 40.167l15.746 8.74-17.307 6.113-15.608-9.573z"/>
        </g>
        <g>
            <path d="M298.31 31.033L281.42 17.057l-4.823 24.814 17.95 13.26z"/>
            <path d="M276.598 41.87l4.823-24.813-20.834 6.643-5.54 23.753z"/>
            <path d="M273.121 59.598l21.415-4.564-17.95-13.26-21.55 5.582-.001.001z"/>
        </g>
        <g>
            <path d="M348.394 34.137l-4.5-5.481-3.065 7.583 4.883 5.32z"/>
            <path d="M340.83 36.239l3.063-7.583-7.027.824-3.226 7.202z"/>
            <path d="M338.63 41.655l7.084-.127-4.882-5.32-7.19.442z"/>
        </g>
        <g>
            <path d="M326.326 19.162l-10.485-4.366 1.369 13.025 10.902 3.851z"/>
            <path d="M317.21 27.82l-1.37-13.025-9.316 6.448.853 12.609z"/>
            <path d="M318.173 37.132l9.919-5.506-10.903-3.851-9.832 6.03v.001z"/>
        </g>
        <g>
            <path d="M348.99 38.3l7.144-8.702 4.863 12.037-7.75 8.444z"/>
            <path d="M360.997 41.635l-4.863-12.037 11.155 1.307 5.12 11.433z"/>
            <path d="M364.487 50.232l-11.243-.202 7.75-8.445 11.412.703z"/>
        </g>
        <g>
            <path d="M380.299 14.528l16.643-6.931-2.173 20.676-17.306 6.113zM394.77 28.273l2.173-20.676 14.789 10.235-1.355 20.014z"/>
            <path d="M393.241 43.052l-15.746-8.74 17.307-6.112 15.608 9.572v.001z"/>
        </g>
        <g>
            <path d="M338.696 4.21L347.36.6l-1.131 10.765-9.01 3.182z"/>
            <path d="M346.229 11.365L347.36.6l7.7 5.328-.706 10.42z"/>
            <path d="M345.433 19.059l-8.197-4.55 9.01-3.182 8.125 4.983z"/>
        </g>
        <g>
            <path d="M384.118 48.54l16.643-6.932-2.173 20.676-17.306 6.113zM398.588 62.284l2.174-20.676 14.788 10.235-1.354 20.014z"/>
            <path d="M397.06 77.063l-15.746-8.739 17.307-6.113 15.608 9.572v.001z"/>
        </g>
        <g>
            <path d="M465.562 40.05l-16.888 13.975-4.823-24.813 17.949-13.26zM443.85 29.212l4.824 24.813-20.834-6.643-5.54-23.753z"/>
            <path d="M440.374 11.484l21.415 4.564-17.95 13.26-21.55-5.582h-.001z"/>
        </g>
        <g>
            <path d="M493.579 51.92l-10.485 4.367 1.369-13.026 10.902-3.851z"/>
            <path d="M484.463 43.261l-1.37 13.026-9.316-6.448.853-12.609z"/>
            <path d="M485.426 33.95l9.919 5.506-10.903 3.851-9.832-6.03z"/>
        </g>
    </g>
</svg>
