<svg xmlns="http://www.w3.org/2000/svg" width="580" height="143" viewBox="0 0 580 143">
    <g fill="none" fill-rule="evenodd">
        <g fill="#4A4A4A">
            <path d="M185.04 67.968h4.991c4.892 0 8.503-.814 10.832-2.446 2.33-1.63 3.496-4.193 3.496-7.687 0-3.46-1.192-5.923-3.57-7.387-2.38-1.464-6.064-2.197-11.056-2.197h-4.693v19.717zm0 12.58v28.002h-15.475V35.572h21.265c9.916 0 17.254 1.806 22.013 5.417 4.758 3.61 7.138 9.093 7.138 16.448 0 4.292-1.18 8.11-3.543 11.454-2.363 3.345-5.708 5.965-10.034 7.863 10.981 16.406 18.137 27.004 21.464 31.796h-17.17l-17.422-28.003h-8.236zM291.364 35.573v47.22c0 5.392-1.207 10.117-3.62 14.176-2.413 4.061-5.898 7.173-10.456 9.335-4.56 2.164-9.951 3.244-16.173 3.244-9.385 0-16.672-2.403-21.864-7.211-5.191-4.81-7.787-11.39-7.787-19.743V35.573h15.425v44.675c0 5.624 1.13 9.75 3.394 12.379 2.262 2.63 6.007 3.943 11.23 3.943 5.058 0 8.728-1.323 11.007-3.969 2.28-2.645 3.42-6.796 3.42-12.453V35.573h15.424zM321.18 76.753v19.019h10.084c4.258 0 7.403-.815 9.434-2.447 2.028-1.63 3.046-4.125 3.046-7.487 0-6.055-4.327-9.085-12.98-9.085h-9.583zm0-12.28h8.986c4.192 0 7.23-.647 9.11-1.946 1.878-1.297 2.82-3.443 2.82-6.44 0-2.794-1.024-4.798-3.07-6.013-2.046-1.215-5.283-1.822-9.71-1.822h-8.135v16.221zm-15.474-28.9h22.713c10.348 0 17.86 1.472 22.537 4.418 4.675 2.944 7.013 7.629 7.013 14.05 0 4.36-1.024 7.937-3.07 10.732-2.045 2.795-4.768 4.477-8.16 5.042v.499c4.624 1.032 7.96 2.963 10.008 5.79 2.045 2.83 3.068 6.59 3.068 11.281 0 6.656-2.404 11.848-7.213 15.575-4.808 3.727-11.339 5.59-19.592 5.59h-27.304V35.574zM369.044 108.55h15.475V35.572h-15.475zM455.792 108.55h-17.57l-19.118-30.749-6.54 4.693v26.056h-15.473V35.572h15.473v33.395l6.09-8.585 19.767-24.81h17.171l-25.458 32.296zM504.562 78.5c-4.892-15.74-7.647-24.641-8.261-26.705-.616-2.063-1.057-3.694-1.323-4.891-1.099 4.26-4.242 14.792-9.434 31.596h19.018zm8.985 30.35l-5.291-17.372H481.65l-5.292 17.371h-16.67l25.756-73.277h18.917l25.858 73.277h-16.672zM534.863 108.55V35.572h15.475v60.2h29.6v12.778z"/>
        </g>
        <path fill="#FECF00" d="M.96 108.42l57.275 33.117.344-47.986-15.89-9.189.01-16.562L1.002 41.728z"/>
        <path fill="#0175E3" d="M64.421.722L6.796 33.945l40.067 25.05L64.392 48.89l15.677 9.065 41.913-23.95z"/>
        <path fill="#E72200" d="M85.122 66.566l-.011 18.762-16.043 9.25-.347 48.35 58.089-33.49.041-66.717z"/>
    </g>
</svg>
