<svg xmlns="http://www.w3.org/2000/svg" width="87" height="55" viewBox="0 0 87 55">
    <g fill="#FFF" fill-rule="evenodd">
        <path d="M4.114 45.167H5.16c1.025 0 1.78-.17 2.269-.512.487-.342.732-.878.732-1.61 0-.725-.25-1.24-.748-1.547-.498-.307-1.27-.46-2.315-.46h-.983v4.129zm0 2.634v5.864H.874V38.383h4.453c2.076 0 3.613.378 4.61 1.134.996.756 1.494 1.904 1.494 3.444 0 .9-.247 1.699-.742 2.4-.495.7-1.195 1.248-2.101 1.646 2.3 3.435 3.798 5.655 4.495 6.658H9.487l-3.648-5.864H4.114zM26.38 38.383v9.889c0 1.129-.253 2.118-.758 2.968-.505.85-1.235 1.502-2.19 1.955-.955.453-2.084.68-3.387.68-1.965 0-3.491-.504-4.578-1.51-1.087-1.008-1.631-2.386-1.631-4.135v-9.847h3.23v9.355c0 1.178.237 2.042.711 2.593.474.55 1.258.826 2.352.826 1.059 0 1.827-.277 2.305-.832.477-.553.716-1.423.716-2.607v-9.335h3.23zM32.624 47.007v3.982h2.111c.892 0 1.55-.17 1.976-.512.425-.341.638-.864.638-1.568 0-1.268-.906-1.902-2.718-1.902h-2.007zm0-2.572h1.882c.878 0 1.514-.136 1.907-.408.394-.271.59-.72.59-1.348 0-.585-.213-1.005-.642-1.26-.428-.254-1.106-.381-2.033-.381h-1.704v3.397zm-3.24-6.052h4.756c2.167 0 3.74.308 4.72.925.978.617 1.468 1.598 1.468 2.942 0 .914-.214 1.663-.643 2.248a2.568 2.568 0 0 1-1.709 1.056v.104c.969.216 1.667.62 2.096 1.213.428.592.643 1.38.643 2.362 0 1.394-.504 2.481-1.51 3.262-1.008.78-2.375 1.17-4.104 1.17h-5.718V38.384zM42.647 53.665h3.241V38.383h-3.24zM60.814 53.665h-3.68l-4.003-6.439-1.37.983v5.456h-3.24V38.383h3.24v6.993l1.275-1.798 4.14-5.195h3.596l-5.331 6.763zM71.027 48.242c-1.025-3.296-1.601-5.16-1.73-5.593a15.58 15.58 0 0 1-.277-1.024c-.23.892-.889 3.098-1.976 6.617h3.983zm1.881 6.355L71.8 50.96H66.23l-1.108 3.637h-3.492l5.394-15.345h3.962L76.4 54.597h-3.492zM77.372 53.665V38.383h3.241V50.99h6.199v2.675z"/>
        <g>
            <path d="M30.568 23.095l11.994 6.935.072-10.049-3.327-1.924.002-3.468-8.732-5.46zM43.858.542L31.79 7.499l8.39 5.246 3.672-2.116 3.283 1.898 8.777-5.016zM48.193 14.33l-.003 3.93-3.36 1.936-.072 10.126 12.165-7.014.009-13.971z"/>
        </g>
    </g>
</svg>
