<svg xmlns="http://www.w3.org/2000/svg" width="1024" height="165" viewBox="0 0 1024 165">
    <g fill="#FFF" fill-rule="evenodd">
        <path d="M-22.787 60.73l15.405 18.762L3.104 53.538l-16.71-18.208zM3.104 53.538L-7.382 79.493l24.052-2.82 11.041-24.65z"/>
        <path d="M10.63 35.001l-24.244.437 16.71 18.207 24.607-1.514v-.001zM44.722 104.692l35.887 14.946-4.686-44.581-37.315-13.182z"/>
        <path d="M75.924 75.057l4.685 44.581 31.888-22.068-2.92-43.155z"/>
        <path d="M72.628 43.19l-33.95 18.843 37.316 13.182 33.653-20.641v-.002zM213.25 49.665L176.838 19.53l-10.4 53.502 38.702 28.592zM166.437 73.031l10.4-53.502-44.923 14.325-11.945 51.216z"/>
        <path d="M158.94 111.257l46.175-9.841-38.704-28.593-46.467 12.037v.002zM321.244 56.358l-9.705-11.82-6.606 16.352 10.526 11.47z"/>
        <path d="M304.932 60.89l6.607-16.351-15.153 1.776-6.956 15.53z"/>
        <path d="M300.192 72.567l15.273-.275-10.528-11.47-15.502.954zM122.179 12.886l-9.705-11.82-6.606 16.352 10.527 11.47z"/>
        <path d="M105.868 17.417l6.606-16.35-15.152 1.776-6.956 15.529z"/>
        <path d="M101.127 29.095l15.273-.275-10.527-11.47-15.502.954zM273.66 24.069l-22.608-9.416 2.952 28.086 23.508 8.304z"/>
        <path d="M254.004 42.738l-2.952-28.085-20.089 13.903 1.84 27.187z"/>
        <path d="M256.08 62.814l21.388-11.87-23.508-8.305-21.201 13.004zM355.71 60.73l15.404 18.762 10.487-25.954-16.71-18.208z"/>
        <path d="M381.6 53.538l-10.485 25.955 24.051-2.82 11.042-24.65z"/>
        <path d="M389.126 35.001l-24.243.437 16.71 18.207 24.607-1.514v-.001z"/>
        <g>
            <path d="M382.015 116.75l-21.027 25.608-14.313-35.426 22.807-24.852zM346.674 106.933l14.313 35.426-32.829-3.849-15.07-33.646z"/>
            <path d="M336.403 81.63l33.09.596-22.808 24.853-33.587-2.067v-.002z"/>
        </g>
        <g>
            <path d="M429.782 124.383l35.887 14.946-4.686-44.582-37.315-13.181zM460.984 94.748l4.685 44.581 31.888-22.069-2.92-43.154z"/>
            <path d="M457.688 62.88l-33.95 18.844 37.316 13.181 33.653-20.64v-.002z"/>
        </g>
        <g>
            <path d="M231.648 139.856l35.886 14.945-4.686-44.581-37.314-13.182zM262.849 110.22l4.686 44.582 31.887-22.07-2.92-43.154z"/>
            <path d="M259.553 78.353l-33.95 18.843 37.316 13.182 33.653-20.641v-.001z"/>
        </g>
        <g>
            <path d="M679.895 146.906l-35.886 14.946 4.685-44.582 37.315-13.181zM648.694 117.27l-4.686 44.582-31.888-22.069 2.92-43.154z"/>
            <path d="M651.99 85.404l33.95 18.843-37.316 13.181-33.653-20.64v-.002z"/>
        </g>
        <g>
            <path d="M609.25 65.709l-36.414-30.135-10.4 53.502 38.702 28.592zM562.436 89.076l10.4-53.503-44.923 14.325-11.945 51.216z"/>
            <path d="M554.94 127.3l46.174-9.84-38.704-28.592-46.467 12.036v.002z"/>
        </g>
        <g>
            <path d="M717.243 72.402l-9.705-11.819-6.606 16.35 10.527 11.471z"/>
            <path d="M700.932 76.934l6.606-16.351-15.153 1.776-6.955 15.53z"/>
            <path d="M696.19 88.611l15.274-.274-10.528-11.471-15.501.954z"/>
        </g>
        <g>
            <path d="M669.66 40.113l-22.609-9.416 2.952 28.086 23.508 8.304z"/>
            <path d="M650.003 58.783l-2.952-28.086L626.962 44.6l1.84 27.187z"/>
            <path d="M652.08 78.858l21.387-11.87-23.508-8.305-21.201 13.004z"/>
        </g>
        <g>
            <path d="M718.526 81.376l15.405-18.762 10.486 25.955-16.71 18.207z"/>
            <path d="M744.418 88.568L733.93 62.614l24.052 2.82 11.042 24.65z"/>
            <path d="M751.943 107.105l-24.244-.436L744.41 88.46l24.607 1.515z"/>
        </g>
        <g>
            <path d="M786.036 30.121l35.886-14.945-4.686 44.58-37.314 13.182zM817.237 59.756l4.686-44.58 31.887 22.068-2.92 43.155z"/>
            <path d="M813.941 91.624l-33.95-18.844L817.307 59.6l33.653 20.64v.002z"/>
        </g>
        <g>
            <path d="M696.33 7.872l18.683-7.78-2.44 23.208-19.425 6.862zM712.574 23.3L715.014.09l16.6 11.489-1.52 22.466z"/>
            <path d="M710.858 39.89l-17.674-9.81 19.426-6.862 17.52 10.745z"/>
        </g>
        <g>
            <path d="M794.27 103.456l35.886-14.946-4.686 44.581-37.314 13.182zM825.471 133.09l4.686-44.58 31.887 22.069-2.92 43.154z"/>
            <path d="M822.175 164.958l-33.95-18.843 37.316-13.182 33.653 20.641v.002z"/>
        </g>
        <g>
            <path d="M969.88 85.149l-36.415 30.135-10.4-53.502 38.702-28.592z"/>
            <path d="M923.065 61.782l10.4 53.503-44.923-14.325-11.945-51.216z"/>
            <path d="M915.569 23.557l46.174 9.84L923.04 61.99l-46.468-12.036v-.002z"/>
        </g>
        <g>
            <path d="M1030.288 110.745l-22.608 9.415 2.952-28.085 23.508-8.304z"/>
            <path d="M1010.632 92.075l-2.952 28.086-20.089-13.904 1.84-27.186z"/>
            <path d="M1012.708 72l21.388 11.87-23.508 8.304-21.201-13.003z"/>
        </g>
    </g>
</svg>
