<svg xmlns="http://www.w3.org/2000/svg" width="22" height="22" viewBox="0 0 22 22">
    <g fill="none" fill-rule="evenodd" transform="translate(.222 .911)">
        <circle cx="10.841" cy="10.493" r="10.493" fill="#3D3D3D"/>
        <g fill="#FFF">
            <path d="M4.29 16.286h2.827V7.839H4.29zM5.704 6.686h-.02c-.947 0-1.561-.649-1.561-1.46 0-.828.632-1.459 1.599-1.459.966 0 1.561.63 1.58 1.459 0 .811-.613 1.46-1.598 1.46zM17.305 16.286H14.48v-4.52c0-1.135-.41-1.91-1.431-1.91-.782 0-1.246.523-1.45 1.028-.075.18-.094.432-.094.684v4.717H8.68s.037-7.654 0-8.446h2.825v1.198c.375-.576 1.046-1.396 2.546-1.396 1.86 0 3.254 1.206 3.254 3.801v4.844z"/>
        </g>
    </g>
</svg>
