<svg xmlns="http://www.w3.org/2000/svg" xmlns:xlink="http://www.w3.org/1999/xlink" width="22" height="22" viewBox="0 0 22 22">
    <defs>
        <path id="a" d="M.002.027h20.986v20.55H.002z"/>
    </defs>
    <g fill="none" fill-rule="evenodd" transform="translate(.548 .737)">
        <mask id="b" fill="#fff">
            <use xlink:href="#a"/>
        </mask>
        <path fill="#3D3D3D" d="M10.492.027C4.7.027 0 4.744 0 10.563c0 4.654 3.006 8.602 7.178 9.996.524.097.716-.228.716-.507 0-.25-.01-.913-.014-1.792-2.92.636-3.536-1.413-3.536-1.413-.476-1.217-1.164-1.541-1.164-1.541-.954-.653.07-.64.07-.64 1.054.075 1.607 1.086 1.607 1.086.937 1.61 2.457 1.145 3.055.875.095-.68.366-1.145.667-1.409-2.33-.266-4.78-1.17-4.78-5.206 0-1.15.409-2.091 1.08-2.828-.108-.267-.468-1.338.103-2.788 0 0 .881-.283 2.886 1.08.837-.234 1.734-.35 2.627-.354.89.005 1.79.12 2.628.355 2.003-1.363 2.883-1.08 2.883-1.08.572 1.451.212 2.522.105 2.788.673.737 1.078 1.678 1.078 2.828 0 4.047-2.453 4.937-4.79 5.199.376.325.712.968.712 1.95 0 1.409-.013 2.545-.013 2.89 0 .282.188.61.721.506a10.536 10.536 0 0 0 7.169-9.995c0-5.82-4.699-10.536-10.496-10.536" mask="url(#b)"/>
    </g>
</svg>
